Coordinates
version=1
nRows=10
nColumns=63
inDegrees=yes

Units are S.I. units (second, meters, Newtons, ...)
If the header above contains a line with 'inDegrees', this indicates whether rotational values are in degrees (yes) or radians (no).

endheader
time	pelvis_tilt	pelvis_list	pelvis_rotation	pelvis_tx	pelvis_ty	pelvis_tz	hip_flexion_r	hip_adduction_r	hip_rotation_r	knee_angle_r	knee_angle_r_beta	ankle_angle_r	subtalar_angle_r	mtp_angle_r	hip_flexion_l	hip_adduction_l	hip_rotation_l	knee_angle_l	knee_angle_l_beta	ankle_angle_l	subtalar_angle_l	mtp_angle_l	L5_S1_Flex_Ext	L5_S1_Lat_Bending	L5_S1_axial_rotation	L4_L5_Flex_Ext	L4_L5_Lat_Bending	L4_L5_axial_rotation	L3_L4_Flex_Ext	L3_L4_Lat_Bending	L3_L4_axial_rotation	L2_L3_Flex_Ext	L2_L3_Lat_Bending	L2_L3_axial_rotation	L1_L2_Flex_Ext	L1_L2_Lat_Bending	L1_L2_axial_rotation	L1_T12_Flex_Ext	L1_T12_Lat_Bending	L1_T12_axial_rotation	Abs_r3	Abs_r2	Abs_r1	Abs_t1	Abs_t2	neck_flexion	neck_bending	neck_rotation	arm_flex_r	arm_add_r	arm_rot_r	elbow_flex_r	pro_sup_r	wrist_flex_r	wrist_dev_r	arm_flex_l	arm_add_l	arm_rot_l	elbow_flex_l	pro_sup_l	wrist_flex_l	wrist_dev_l
      3.50847458	      2.51747914	     -2.03236307	     88.40850602	      0.17251234	      0.96301264	      0.40534798	     -4.61821445	      4.36681177	     -3.79512004	     13.58421725	      0.23708932	     27.36497183	    -15.86672679	      0.00000000	     -4.32535221	     -4.07682491	      6.46609839	     12.63929739	      0.22059735	     32.20678997	     -6.73046880	      0.00000000	      0.22701437	      0.58458121	     -3.52922602	      0.42158839	      0.77749301	     -3.74980264	      0.37296191	      1.42135075	     -3.74980264	      0.25945473	      1.42135075	     -3.08807277	      0.21080555	      1.19207800	     -2.86749614	      0.12971601	      0.90551629	     -2.64691951	      1.62154097	      6.61289953	    -19.62849635	      0.00000000	      0.00000000	    -10.30429896	     -1.29560636	    -10.44472886	     17.25795943	    -53.58400735	     93.92803021	    111.75633496	     75.18736992	    -21.66120492	    -18.33243177	      6.25984607	    -42.92563513	     95.06130726	    107.17554994	     89.51732422	    -64.17362172	    -24.30997850
      3.52542373	      2.00226270	     -2.03386476	     89.13386451	      0.17250908	      0.96379065	      0.40448858	     -5.46233658	      3.99658277	     -5.02247179	     12.65263148	      0.22083008	     26.38043153	    -15.11044796	      0.00000000	     -4.69603780	     -3.70172130	      6.57821748	     11.92698214	      0.20816511	     31.07011702	     -6.42545289	      0.00000000	      0.25621596	      0.50895177	     -3.57530297	      0.47581866	      0.67690586	     -3.79875941	      0.42093720	      1.23746534	     -3.79875941	      0.29282922	      1.23746534	     -3.12839010	      0.23792214	      1.03785445	     -2.90493367	      0.14640180	      0.78836630	     -2.68147723	      1.83012497	      5.75736424	    -19.88476255	      0.00000000	      0.00000000	     -9.08733848	     -1.01599594	    -10.24183064	     15.59417488	    -53.66691418	     89.69103555	    111.59741472	     76.90268000	    -14.43737928	    -17.03128139	      6.21169190	    -43.94926256	     94.70277169	    107.85796205	     89.53420838	    -65.17480184	    -24.35969050
      3.54237288	      1.76722396	     -2.13676853	     89.07396706	      0.17283859	      0.96423343	      0.40341276	     -6.17969972	      3.83227944	     -5.19714587	     11.64173310	      0.20318657	     25.60038710	    -14.64906880	      0.00000000	     -5.10480748	     -3.47965909	      6.28814108	     11.13825137	      0.19439916	     30.38788477	     -6.38964327	      0.00000000	      0.29146185	      0.48647532	     -3.51158729	      0.54127381	      0.64701217	     -3.73106150	      0.47884268	      1.18281609	     -3.73106150	      0.33311175	      1.18281609	     -3.07263888	      0.27065148	      0.99202047	     -2.85316467	      0.16654130	      0.75355027	     -2.63369047	      2.08188287	      5.50310611	    -19.53039503	      0.00000000	      0.00000000	     -7.58301959	     -1.32724642	    -10.00966464	     15.73844457	    -53.54742161	     88.73585170	    111.75714268	     77.15076534	    -13.87801358	    -17.09085026	      6.40292127	    -44.85076584	     94.49984065	    108.45917042	     89.52213730	    -65.11125873	    -24.35946360
      3.55932203	      1.10916373	     -1.76526248	     88.82327039	      0.17410317	      0.96504053	      0.40148395	     -7.55239499	      3.12552130	     -6.18734520	     10.36752203	      0.18094739	     25.80099516	    -12.17913960	      0.00000000	     -6.29776924	     -2.90044481	      5.08900827	      9.81996908	      0.17139079	     29.97311074	     -4.83066393	      0.00000000	      0.27464387	      0.38184214	     -3.29819147	      0.51004113	      0.50785004	     -3.50432844	      0.45121242	      0.92841098	     -3.50432844	      0.31389048	      0.92841098	     -2.88591754	      0.25503430	      0.77865249	     -2.67978057	      0.15693151	      0.59147347	     -2.47364361	      1.96175371	      4.31947464	    -18.34355152	      0.00000000	      0.00000000	     -6.59824107	     -0.48929199	    -10.86845470	     11.46162317	    -53.09649292	     81.22828353	    111.07119061	     80.48906460	     -5.37399462	    -16.29568005	      7.31867134	    -46.51408510	     94.49304248	    109.46359315	     89.47629397	    -62.38197402	    -24.31511622
      3.57627119	      0.64951012	     -1.58289036	     88.29459798	      0.17508309	      0.96515327	      0.40032343	     -8.58071948	      2.61345432	     -6.01017583	      9.20904004	      0.16072807	     25.59274242	    -11.20921898	      0.00000000	     -7.23114809	     -2.35705691	      4.56561653	      8.61336282	      0.15033154	     29.70448466	     -4.59550706	      0.00000000	      0.26871715	      0.32073248	     -3.17684874	      0.49903462	      0.42657419	     -3.37540179	      0.44147540	      0.77982894	     -3.37540179	      0.30711683	      0.77982894	     -2.77974265	      0.24953074	      0.65403767	     -2.58118960	      0.15354498	      0.49681461	     -2.38263655	      1.91941972	      3.62818992	    -17.66867963	      0.00000000	      0.00000000	     -5.36403839	     -0.08209054	    -10.62910694	     11.34924525	    -52.23736669	     79.90258483	    110.69261386	     81.53935527	     -4.61303115	    -17.02935405	      7.49773525	    -47.91192249	     93.85203261	    110.25814419	     89.40983923	    -61.45997434	    -24.26864047
      3.59322034	     -0.02883669	     -1.67861823	     87.52178256	      0.17700777	      0.96446237	      0.39981786	     -8.98125932	      1.75368198	     -6.70069144	      8.69060770	      0.15167972	     26.04213906	     -8.82763681	      0.00000000	     -7.80613809	     -1.66857927	      2.70757748	      7.54205672	      0.13163372	     29.79219348	     -2.70955284	      0.00000000	      0.29996630	      0.21266697	     -2.96841879	      0.55706742	      0.28284707	     -3.15394496	      0.49281464	      0.51707848	     -3.15394496	      0.34283149	      0.51707848	     -2.59736644	      0.27854871	      0.43367049	     -2.41184026	      0.17140075	      0.32942114	     -2.22631409	      2.14262931	      2.40573134	    -16.50945477	      0.00000000	      0.00000000	     -4.40623990	      0.88696830	    -11.68622759	      9.74445303	    -50.85739475	     76.60990990	    109.64080381	     84.48259687	     -1.94413666	    -18.46903542	      6.95688794	    -50.11219353	     91.40779272	    111.38834609	     89.33108473	    -55.43827317	    -24.19579694
      3.61016949	     -0.42726042	     -1.46655142	     86.88364262	      0.17831606	      0.96366942	      0.39959085	     -9.95066232	      1.26382774	     -6.52850226	      7.63575614	      0.13326909	     25.70889607	     -7.71976674	      0.00000000	     -8.77871598	     -1.15890161	      2.00774216	      6.34850806	      0.11080237	     29.62319348	     -2.33196253	      0.00000000	      0.27197369	      0.14352559	     -2.81753598	      0.50508235	      0.19088904	     -2.99363198	      0.44682558	      0.34896812	     -2.99363198	      0.31083874	      0.34896812	     -2.46534398	      0.25255477	      0.29267738	     -2.28924798	      0.15540577	      0.22232114	     -2.11315198	      1.94268090	      1.62359018	    -15.67028985	      0.00000000	      0.00000000	     -3.54168298	      1.56986761	    -12.12472686	     10.04653156	    -49.74964312	     75.97686997	    108.96969213	     85.65331044	     -2.29742211	    -18.85931576	      6.62778788	    -51.56439052	     89.70669035	    112.06208215	     89.24646869	    -54.14177580	    -24.13810169
      3.62711864	     -0.95338877	     -1.52565780	     86.17368871	      0.18020610	      0.96217743	      0.40002349	    -10.15601513	      0.45042338	     -8.81440599	      7.59221847	      0.13250921	     26.51868146	     -3.34111714	      0.00000000	     -9.26357968	     -0.69726300	     -1.65512953	      5.57758367	      0.09734720	     30.13595894	      2.12348235	      0.00000000	      0.28464623	      0.05212268	     -2.81192921	      0.52861652	      0.06932317	     -2.98767478	      0.46764530	      0.12673109	     -2.98767478	      0.32532218	      0.12673109	     -2.46043806	      0.26432249	      0.10628857	     -2.28469248	      0.16264686	      0.08073803	     -2.10894691	      2.03319959	      0.58962219	    -15.63910667	      0.00000000	      0.00000000	     -3.37155289	      2.38784119	    -12.14893838	     12.37807541	    -48.33507249	     77.87085800	    107.97985226	     87.57155835	     -6.53661400	    -19.95232000	      1.38042834	    -53.72880215	     81.28079080	    112.81025589	     89.23014891	    -43.79475035	    -24.08082950
      3.64406780	     -1.29691809	     -1.27152151	     85.37907245	      0.18213702	      0.96067685	      0.40050270	    -10.94563324	     -0.00326494	     -8.53976598	      6.90890067	      0.12058306	     26.33882245	     -2.30901004	      0.00000000	    -10.17921452	     -0.19367637	     -2.29740467	      4.64047110	      0.08099150	     29.67983678	      2.14289229	      0.00000000	      0.23821811	     -0.03265485	     -2.60393187	      0.44239485	     -0.04343096	     -2.76667761	      0.39136853	     -0.07939701	     -2.76667761	      0.27225948	     -0.07939701	     -2.27844039	      0.22120934	     -0.06658978	     -2.11569464	      0.13611783	     -0.05058237	     -1.95294890	      1.70156813	     -0.36939824	    -14.48228788	      0.00000000	      0.00000000	     -3.18423546	      3.61805043	    -13.55305642	     12.40245834	    -47.56463458	     76.59585495	    107.37947792	     88.60503410	     -9.42189889	    -19.94451910	     -0.44757586	    -54.69231884	     77.79732817	    113.05125271	     89.21991431	    -42.54381375	    -24.05796717
      3.66101695	     -1.63160029	     -1.44463998	     84.89711952	      0.18343834	      0.95839285	      0.40136225	    -10.92019292	     -0.56632202	    -10.67703065	      7.01733446	      0.12247559	     27.12382250	      1.52873379	      0.00000000	    -10.40695060	      0.15204752	     -3.68827975	      4.07196119	      0.07106913	     29.65438895	      3.77687101	      0.00000000	      0.26120695	     -0.09480531	     -2.76664086	      0.48508743	     -0.12609106	     -2.93955591	      0.42913690	     -0.23050963	     -2.93955591	      0.29853342	     -0.23050963	     -2.42081075	      0.24255677	     -0.19332698	     -2.24789570	      0.14925365	     -0.14685342	     -2.07498064	      1.86577513	     -1.07245661	    -15.38722647	      0.00000000	      0.00000000	     -3.26658223	      4.03117741	    -13.05299984	     16.30569729	    -46.71293778	     79.41183910	    106.86761713	     88.71976149	    -16.40805416	    -20.47630739	    -10.04688545	    -55.18547773	     64.05888753	    112.88219080	     89.23971595	    -27.69933799	    -23.92569546
